#!OML:ASF H:\Pregnant\Project 1\Capture day 1\Session 1\femalepreg.ASF
:FULLY-SPECIFIED
:DEGREES
401
root 1.61987 15.3623 -4.90896 -163.163 6.11718 -174.83
lowerback -13.5188 3.57302 10.9819
upperback -7.11704 4.49673 0.349404
thorax 0.667136 2.44606 -5.14613
lowerneck -24.8154 3.57474 3.97744
upperneck 35.38 1.6421 0.0065563
head 17.17 0.522384 -0.546658
rclavicle -5.04913e-014 -3.97569e-014
rhumerus -12.5685 12.1374 -83.7684
rradius 59.1648
rwrist -36.1212
rhand -17.0357 -38.6234
rfingers 7.12502
rthumb 9.20086 -68.4026
lclavicle -5.04913e-014 -3.97569e-014
lhumerus -68.4303 0.290072 69.6307
lradius 29.3897
lwrist 50.8304
lhand -32.1977 -4.00063
lfingers 7.12502
lthumb -5.43962 25.9096
rfemur -24.8484 21.8847 32.0739
rtibia 38.7491
rfoot -20.9029 -10.8941
rtoes -11.7369
lfemur -66.0251 0.949932 -19.7158
ltibia 70.8202
lfoot 0.683562 7.0193
ltoes -12.0762
402
root 1.60741 15.3687 -5.07071 -163.125 6.75654 -174.917
lowerback -13.3847 3.84791 11.0433
upperback -7.15214 4.86823 0.238505
thorax 0.633043 2.62275 -5.24532
lowerneck -24.7244 3.52091 3.8592
upperneck 35.5475 1.60299 -0.0608849
head 17.2332 0.465247 -0.571351
rclavicle -2.62396e-014 1.41137e-014
rhumerus -10.7716 12.0871 -83.4645
rradius 60.0824
rwrist -35.6323
rhand -17.6002 -36.4591
rfingers 7.12502
rthumb 8.6562 -66.2616
lclavicle -2.62396e-014 1.41137e-014
lhumerus -69.2757 -0.780623 70.3229
lradius 29.9405
lwrist 50.5067
lhand -31.1621 -3.96833
lfingers 7.12502
lthumb -4.43971 25.9651
rfemur -23.9953 22.3147 31.9085
rtibia 38.3445
rfoot -20.9847 -10.7551
rtoes -12.2299
lfemur -66.1794 0.9512 -19.5996
ltibia 68.74
lfoot 0.67735 6.80372
ltoes -11.9044
403
root 1.59507 15.3741 -5.23381 -163.107 7.33905 -174.999
lowerback -13.2056 4.08004 11.0757
upperback -7.21337 5.19969 0.172942
thorax 0.535702 2.77926 -5.29208
lowerneck -24.6284 3.49128 3.72741
upperneck 35.7657 1.60393 -0.146111
head 17.3234 0.415766 -0.594746
rclavicle 3.36195e-014 7.95139e-016
rhumerus -9.03631 12.1115 -83.1403
rradius 60.9018
rwrist -35.1506
rhand -18.0752 -34.5652
rfingers 7.12502
rthumb 8.1978 -64.3862
lclavicle 3.36195e-014 7.95139e-016
lhumerus -70.1577 -1.79282 71.1226
lradius 30.3618
lwrist 49.8189
lhand -30.5216 -3.88219
lfingers 7.12502
lthumb -3.82118 26.0633
rfemur -23.1154 22.695 31.7628
rtibia 37.9377
rfoot -21.0458 -10.6409
rtoes -12.8371
lfemur -66.2079 0.87231 -19.4157
ltibia 66.528
lfoot 0.672756 6.40848
ltoes -11.8673
404
root 1.58301 15.3785 -5.39802 -163.089 7.87436 -175.075
lowerback -13.0143 4.27876 11.0813
upperback -7.29261 5.49782 0.147391
thorax 0.401632 2.92019 -5.29035
lowerneck -24.5438 3.48324 3.58673
upperneck 36.0247 1.64026 -0.24649
head 17.44 0.374012 -0.617147
rclavicle 5.31997e-014 2.98177e-015
rhumerus -7.3298 12.206 -82.794
rradius 61.6113
rwrist -34.7142
rhand -18.3615 -33.1752
rfingers 7.12502
rthumb 7.92148 -63.0068
lclavicle 5.31997e-014 2.98177e-015
lhumerus -71.0506 -2.72959 71.998
lradius 30.6678
lwrist 48.9203
lhand -30.1773 -3.79176
lfingers 7.12502
lthumb -3.48872 26.1594
rfemur -22.2375 23.0253 31.6298
rtibia 37.5345
rfoot -21.0861 -10.5184
rtoes -13.5258
lfemur -66.1355 0.722965 -19.1644
ltibia 64.1886
lfoot 0.675167 5.87264
ltoes -11.9041
405
root 1.57106 15.3819 -5.56302 -163.052 8.35544 -175.136
lowerback -12.8447 4.45171 11.0806
upperback -7.37804 5.76406 0.151453
thorax 0.263426 3.04716 -5.25917
lowerneck -24.5024 3.49205 3.46933
upperneck 36.3187 1.70363 -0.388572
head 17.5891 0.338355 -0.657676
rclavicle -2.48481e-014 -4.25399e-014
rhumerus -5.63361 12.3481 -82.435
rradius 62.2153
rwrist -34.3448
rhand -18.5449 -32.1735
rfingers 7.12502
rthumb 7.74438 -62.0117
lclavicle -2.48481e-014 -4.25399e-014
lhumerus -71.9073 -3.57725 72.903
lradius 30.8682
lwrist 47.9379
lhand -30.0516 -3.61854
lfingers 7.12502
lthumb -3.36729 26.3346
rfemur -21.3835 23.3159 31.5102
rtibia 37.1398
rfoot -21.1008 -10.4002
rtoes -14.3084
lfemur -65.9884 0.500588 -18.8405
ltibia 61.7329
lfoot 0.698354 5.24024
ltoes -12.0814
406
root 1.55931 15.3845 -5.72878 -162.983 8.79013 -175.188
lowerback -12.7149 4.60538 11.0695
upperback -7.46474 6.00416 0.177919
thorax 0.137066 3.16379 -5.20097
lowerneck -24.4828 3.51422 3.3484
upperneck 36.6169 1.79086 -0.533316
head 17.7484 0.310921 -0.694166
rclavicle -5.57839e-014 -2.54444e-014
rhumerus -3.96335 12.5299 -82.0632
rradius 62.7276
rwrist -34.0711
rhand -18.4979 -31.667
rfingers 7.12502
rthumb 7.78977 -61.5035
lclavicle -5.57839e-014 -2.54444e-014
lhumerus -72.6868 -4.31932 73.7829
lradius 30.9448
lwrist 46.9774
lhand -29.9793 -3.4672
lfingers 7.12502
lthumb -3.29751 26.487
rfemur -20.5709 23.5787 31.3929
rtibia 36.7596
rfoot -21.0981 -10.2642
rtoes -15.1418
lfemur -65.7808 0.208318 -18.4493
ltibia 59.1718
lfoot 0.735267 4.57052
ltoes -12.4141
407
root 1.54772 15.3859 -5.89517 -162.878 9.17395 -175.219
lowerback -12.6441 4.74293 11.0675
upperback -7.54068 6.21524 0.222173
thorax 0.0470357 3.26901 -5.12899
lowerneck -24.4969 3.54646 3.23719
upperneck 36.9099 1.89585 -0.686424
head 17.9161 0.291307 -0.732411
rclavicle -1.0958e-014 -2.42517e-014
rhumerus -2.32737 12.7126 -81.7036
rradius 63.1735
rwrist -33.8747
rhand -18.5074 -31.0624
rfingers 7.12502
rthumb 7.78064 -60.8993
lclavicle -1.0958e-014 -2.42517e-014
lhumerus -73.3638 -4.96394 74.6245
lradius 30.9218
lwrist 46.12
lhand -29.9532 -3.21361
lfingers 7.12502
lthumb -3.27224 26.741
rfemur -19.8048 23.8227 31.2888
rtibia 36.3941
rfoot -21.0797 -10.1136
rtoes -15.9672
lfemur -65.5288 -0.152561 -17.9789
ltibia 56.5275
lfoot 0.783909 3.91442
ltoes -12.9017
408
root 1.53653 15.3861 -6.06197 -162.742 9.51233 -175.239
lowerback -12.6173 4.86305 11.065
upperback -7.61281 6.39916 0.275586
thorax -0.0216997 3.3629 -5.04795
lowerneck -24.5209 3.58425 3.12472
upperneck 37.1847 2.00915 -0.826492
head 18.0784 0.277504 -0.762557
rclavicle -1.30701e-014 8.34896e-015
rhumerus -0.747495 12.8865 -81.3713
rradius 63.5602
rwrist -33.7451
rhand -18.5434 -30.3856
rfingers 7.12502
rthumb 7.74584 -60.2238
lclavicle -1.30701e-014 8.34896e-015
lhumerus -73.9286 -5.51697 75.4018
lradius 30.7934
lwrist 45.3635
lhand -29.9248 -2.82635
lfingers 7.12502
lthumb -3.24486 27.1287
rfemur -19.0806 24.0616 31.1922
rtibia 36.0457
rfoot -21.0416 -9.96083
rtoes -16.7811
lfemur -65.2333 -0.579961 -17.4384
ltibia 53.821
lfoot 0.836386 3.30546
ltoes -13.48
409
root 1.5259 15.3849 -6.22952 -162.586 9.80683 -175.242
lowerback -12.6259 4.96381 11.0695
upperback -7.67814 6.55246 0.336668
thorax -0.070165 3.44307 -4.96435
lowerneck -24.5485 3.63014 3.02513
upperneck 37.4334 2.1328 -0.961404
head 18.2294 0.271668 -0.789896
rclavicle -2.61899e-014 -1.23246e-014
rhumerus 0.768045 13.0594 -81.0805
rradius 63.9026
rwrist -33.7041
rhand -18.7081 -29.3856
rfingers 7.12502
rthumb 7.58686 -59.2295
lclavicle -2.61899e-014 -1.23246e-014
lhumerus -74.4072 -5.99903 76.142
lradius 30.5725
lwrist 44.7224
lhand -29.9222 -2.53528
lfingers 7.12502
lthumb -3.24228 27.4198
rfemur -18.3816 24.3013 31.117
rtibia 35.7119
rfoot -20.9824 -9.81975
rtoes -17.5623
lfemur -64.8946 -1.0689 -16.8224
ltibia 51.0852
lfoot 0.868051 2.76778
ltoes -14.1081
410
root 1.51601 15.3825 -6.39768 -162.422 10.0654 -175.243
lowerback -12.657 5.04433 11.0678
upperback -7.73417 6.67518 0.399267
thorax -0.102662 3.50898 -4.8782
lowerneck -24.5842 3.67992 2.93889
upperneck 37.6532 2.25911 -1.08704
head 18.368 0.271995 -0.813949
rclavicle 8.3092e-014 6.36111e-014
rhumerus 2.22102 13.2479 -80.8273
rradius 64.2145
rwrist -33.7664
rhand -18.9572 -28.2157
rfingers 7.12502
rthumb 7.34645 -58.0682
lclavicle 8.3092e-014 6.36111e-014
lhumerus -74.7901 -6.40599 76.8263
lradius 30.2425
lwrist 44.1662
lhand -29.9466 -2.40185
lfingers 7.12502
lthumb -3.26586 27.5529
rfemur -17.6909 24.5384 31.058
rtibia 35.3919
rfoot -20.8959 -9.70465
rtoes -18.3473
lfemur -64.5058 -1.62075 -16.1427
ltibia 48.3512
lfoot 0.878855 2.34432
ltoes -14.6526
